<?xml version="1.0" encoding="UTF-8"?>
<svg xmlns="http://www.w3.org/2000/svg" id="home" viewBox="0 0 512 512">
   <polyline class="strokeThick" points="496.5 228.51 256.21 27.84 255.79 27.84 15.5 228.51" />
   <path class="fill" d="M210.06,483.44V335.78a12,12,0,0,1,12-12h67.88a12,12,0,0,1,12,12v148c0,.2,5.4.36,12,.36H423.76a12,12,0,0,0,12-12v-205c0-6.6-4.14-15.46-9.21-19.69L264.77,112.42c-5.06-4.23-9.28-7.69-9.36-7.69s-4.31,3.46-9.37,7.69L84.26,247.52c-5.07,4.23-9.21,13.09-9.21,19.69v205a12,12,0,0,0,12,12h123" />
   <path d="M210.06,483.44V335.78a12,12,0,0,1,12-12h67.88a12,12,0,0,1,12,12v148c0,.2,5.4.36,12,.36H423.76a12,12,0,0,0,12-12v-205c0-6.6-4.14-15.46-9.21-19.69L264.77,112.42c-5.06-4.23-9.28-7.69-9.36-7.69s-4.31,3.46-9.37,7.69L84.26,247.52c-5.07,4.23-9.21,13.09-9.21,19.69v205a12,12,0,0,0,12,12h123" />
</svg>