<?xml version="1.0" encoding="utf-8"?>
<!-- Generator: Adobe Illustrator 23.0.1, SVG Export Plug-In . SVG Version: 6.00 Build 0)  -->
<svg version="1.1" id="Capa_1" xmlns="http://www.w3.org/2000/svg" xmlns:xlink="http://www.w3.org/1999/xlink" x="0px" y="0px"
	 viewBox="0 0 512 512" style="enable-background:new 0 0 512 512;" xml:space="preserve">
<style type="text/css">
	.st0{opacity:0.66;}
	.st1{fill:#FFFFFF;}
</style>
<g transform="translate(1 1)" class="st0">
	<g>
		<path class="st1" d="M504.5,474.6L341,311.1c26.4-32.9,42.2-74.6,42.2-120.1c0-106-86-192-192-192s-192,86-192,192s86,192,192,192
			c45.2,0,86.8-15.6,119.6-41.8l163.5,163.5c8.3,8.3,21.8,8.3,30.2,0C512.8,496.4,512.8,482.9,504.5,474.6z M41.9,191
			c0-82.5,66.9-149.3,149.3-149.3S340.6,108.5,340.6,191c0,41.4-16.8,78.8-44,105.8c0,0,0,0,0,0c0,0,0,0,0,0
			c-27,26.9-64.2,43.5-105.3,43.5C108.8,340.3,41.9,273.5,41.9,191z"/>
	</g>
</g>
</svg>
