<?xml version="1.0" encoding="utf-8"?>
<svg version="1.1" id="Layer_1"
  xmlns="http://www.w3.org/2000/svg"
  xmlns:xlink="http://www.w3.org/1999/xlink" x="0px" y="0px"
	 viewBox="0 0 512 512" style="enable-background:new 0 0 512 512;" xml:space="preserve">
  <path class="fill" d="M483,457.8c-5.4,0-10.6-2.9-13.3-7.9l-0.4-0.8c-45.3-81.8-131.5-132.6-225.1-132.6h-28.6v85.8
	c0,6.1-3.7,11.6-9.2,13.9c-5.5,2.3-12.1,1.2-16.4-3.1L18.4,246.7c-2.9-2.8-4.6-6.8-4.6-10.9c0-4.1,1.7-8,4.6-10.9L190,58.5
	c4.4-4.2,10.9-5.4,16.4-3.1c5.6,2.4,9.2,7.9,9.2,13.9v85.8c156.3,2.7,282.5,130.7,282.5,287.5c0,6.9-4.7,13-11.4,14.7
	C485.5,457.7,484.3,457.8,483,457.8z"/>
</svg>
