<?xml version="1.0" encoding="utf-8"?>
<!-- Generator: Adobe Illustrator 23.0.1, SVG Export Plug-In . SVG Version: 6.00 Build 0)  -->
<svg version="1.1" id="Layer_1" xmlns="http://www.w3.org/2000/svg" xmlns:xlink="http://www.w3.org/1999/xlink" x="0px" y="0px"
	 viewBox="0 0 512 512" style="enable-background:new 0 0 512 512;" xml:space="preserve">
<style type="text/css">
	.st0{fill:#FCFCFC;}
</style>
<g id="surface1">
	<path class="st0" d="M497,37h-65.7c0.2-7.3,0.4-14.6,0.4-22c0-8.3-6.7-15-15-15H95.3c-8.3,0-15,6.7-15,15c0,7.4,0.1,14.7,0.4,22H15
		C6.7,37,0,43.7,0,52c0,67.2,17.6,130.6,49.5,178.6c31.5,47.4,73.5,74.6,118.9,77.2c10.3,11.2,21.2,20.3,32.5,27.3v66.7h-25.2
		c-30.4,0-55.2,24.8-55.2,55.2V482h-1.1c-8.3,0-15,6.7-15,15c0,8.3,6.7,15,15,15h273.1c8.3,0,15-6.7,15-15c0-8.3-6.7-15-15-15h-1.1
		v-25.2c0-30.4-24.7-55.2-55.2-55.2h-25.2V335c11.3-7,22.2-16.1,32.5-27.3c45.4-2.6,87.4-29.8,118.9-77.2
		C494.4,182.6,512,119.2,512,52C512,43.7,505.3,37,497,37z M74.4,213.9C48.1,174.4,32.7,122.6,30.3,67h52.1
		c5.4,68.5,21.5,131.7,46.6,182c4,8,8.2,15.6,12.5,22.7C116.6,262.2,93.5,242.5,74.4,213.9z M361.5,456.8V482h-211v-25.2
		c0-13.9,11.3-25.2,25.2-25.2h160.7C350.2,431.7,361.5,443,361.5,456.8z M281.2,401.7h-50.3V348c8.2,2.2,16.6,3.3,25.2,3.3
		s16.9-1.1,25.2-3.3V401.7z M290.5,312.3c-0.7,0.3-1.3,0.6-1.9,1c-10.6,5.3-21.5,8-32.5,8c-11,0-21.9-2.7-32.5-8
		c-0.6-0.4-1.3-0.7-2-1c-11.8-6.2-23.1-15.6-33.9-27.9c-0.6-0.8-1.2-1.6-1.9-2.2c-10.7-12.7-20.7-28.3-29.9-46.6
		c-27.6-55.1-43.5-127.6-45.3-205.5h291c-1.8,77.9-17.7,150.4-45.3,205.5c-9.2,18.4-19.2,34-29.9,46.6c-0.7,0.7-1.4,1.4-1.9,2.2
		C313.6,296.7,302.2,306.1,290.5,312.3z M437.6,213.9c-19,28.6-42.1,48.3-67.1,57.7c4.3-7.1,8.5-14.7,12.5-22.7
		c25.1-50.2,41.2-113.5,46.6-182h52.1C479.3,122.6,463.9,174.4,437.6,213.9z"/>
</g>
</svg>
