<?xml version="1.0" encoding="utf-8"?>
<!-- Generator: Adobe Illustrator 23.0.1, SVG Export Plug-In . SVG Version: 6.00 Build 0)  -->
<svg version="1.1" id="Capa_1" xmlns="http://www.w3.org/2000/svg" xmlns:xlink="http://www.w3.org/1999/xlink" x="0px" y="0px"
	 viewBox="0 0 335.2 335.2" style="enable-background:new 0 0 335.2 335.2;" xml:space="preserve">
<style type="text/css">
	.st0{fill:#FFFFFF;}
</style>
<g>
	<g>
		<path class="st0" d="M329,128.4c-4-4-9.2-6.4-15.2-6.4h-21.2c-0.8-2-1.6-3.6-2-5.6c-0.8-2-1.6-3.6-2.4-5.6l15.2-15.2
			c4-4,6.4-9.6,6.4-15.2s-2-10.8-6.4-15.2l-33.6-33.6c-4-4-9.6-6.4-15.2-6.4c-5.2,0-10.4,2-14.4,5.6c-0.4,0.4-0.4,0.4-0.8,0.8
			l-15.2,15.6c-2-0.8-3.6-1.6-5.6-2.4s-3.6-1.6-5.6-2V21.6c0-5.6-2-10.4-5.6-14.4c-0.4-0.4-0.4-0.4-0.8-0.8c-4-4-9.2-6.4-15.2-6.4
			h-47.2c-5.6,0-10.4,2-14.4,5.6C129.4,6,129.4,6,129,6.4c-4,4-6.4,9.2-6.4,15.2v21.2c-2,0.8-3.6,1.6-5.6,2c-2,0.8-3.6,1.6-5.6,2.4
			L96.2,32c-4-4-9.6-6.4-15.2-6.4s-10.8,2-15.2,6.4L32.2,65.6c-4,4-6.4,9.6-6.4,15.2c0,5.2,2,10.4,5.6,14.4c0.4,0.4,0.4,0.4,0.8,0.8
			l15.2,15.2c-0.8,2-1.6,3.6-2.4,5.6s-1.6,3.6-2,5.6H21.8c-6,0-11.2,2.4-15.2,6.4c-4,4-6.4,9.2-6.4,15.2v47.2c0,5.6,2,10.4,5.6,14.4
			c0.4,0.4,0.4,0.4,0.8,0.8c4,4,9.2,6.4,15.2,6.4H43c0.8,2,1.6,3.6,2,5.6c0.8,2,1.6,3.6,2.4,5.6l-15.2,15.2c-4,4-6.4,9.6-6.4,15.2
			s2,10.8,6.4,15.2l33.6,33.6c4,4,9.6,6.4,15.2,6.4s10.8-2,15.2-6.4l15.2-15.2c1.6,0.8,3.6,1.6,5.6,2.4s3.6,1.6,5.6,2v21.2
			c0,6,2.4,11.2,6.4,15.2c4,4,9.2,6.4,15.2,6.4h47.2c6,0,11.2-2.4,15.2-6.4s6.4-9.2,6.4-15.2v-21.2c2-0.8,3.6-1.6,5.6-2
			c2-0.8,3.6-1.6,5.6-2.4l15.2,15.2c4,4,9.6,6.4,15.2,6.4c5.2,0,10.4-2,14.4-5.6c0.4-0.4,0.4-0.4,0.8-0.8l33.6-33.6
			c4-4,6.4-9.6,6.4-15.2c0-5.6-2-10.8-6.4-15.2l-15.6-15.6c0.8-2,1.6-3.6,2.4-5.6s1.6-3.6,2-5.6h21.2c6,0,11.2-2.4,15.2-6.4
			s6.4-9.2,6.4-15.2v-47.2C335.4,137.6,332.6,132.4,329,128.4z M315,190.8h-0.4c0,0.4,0,0.4-0.4,0.8c0,0-0.4,0.4-0.8,0.4h-28.8
			c-4.8,0-9.2,3.6-10,8c-1.2,3.6-2.4,6.8-3.6,10.4c-1.6,3.6-3.2,7.2-4.8,10.4c-2.4,4-1.2,9.2,1.6,12l20.4,20.4c0,0,0.4,0.4,0.4,0.8
			c0,0.4,0,0.4-0.4,0.8l-33.6,33.6h-0.4c-0.4,0-0.4,0-0.8-0.4L233,267.6c-3.6-3.6-8.8-4-12.8-1.2c-3.2,1.6-6.4,3.2-9.6,4.4
			c-3.6,1.6-7.2,2.8-10.8,4c-4.4,1.2-7.2,5.2-7.2,10v28.8c0,0.4,0,0.4-0.4,0.8c0,0-0.4,0.4-0.8,0.4h-47.2c-0.4,0-0.4,0-0.8-0.4
			c0,0-0.4-0.4-0.4-0.8v-28.8c0-4.8-3.6-9.2-8-10c-3.6-1.2-6.8-2.4-10.4-3.6c-3.6-1.6-7.2-3.2-10.4-5.2c-4-2.4-9.2-1.2-12.4,2
			l-20.4,20.4c0,0-0.4,0.4-0.8,0.4s-0.4,0-0.8-0.4l-33.6-33.6c0,0-0.4-0.4-0.4-0.8c0-0.4,0-0.4,0.4-0.8l20.4-20.4
			c3.6-3.6,4-8.8,1.2-12.8c-1.6-3.2-3.2-6.4-4.4-9.6c-1.6-3.6-2.8-7.2-4-10.8c-1.2-4.4-5.2-7.2-10-7.2H20.6c-0.4,0-0.4,0-0.8-0.4
			v-0.4v-48c0-0.4,0-0.4,0.4-0.8c0,0,0.4-0.4,0.8-0.4h28.8c4.8,0,9.2-3.6,10-8c1.2-3.6,2.4-6.8,3.6-10.4c1.6-3.6,3.2-7.2,4.8-10.4
			c2.4-4,1.2-9.2-1.6-12L46.2,81.2v-0.4c0-0.4,0-0.4,0.4-0.8l33.6-33.6c0,0,0.4-0.4,0.8-0.4s0.4,0,0.8,0.4l20.4,20.4
			c3.2,3.2,8.4,4,12.4,1.6c3.6-2,6.8-3.6,10.4-4.8c3.6-1.6,7.2-2.8,10.8-4c4.4-1.2,7.2-5.2,7.2-10V20.8c0-0.4,0-0.4,0.4-0.8h0.4H191
			c0.4,0,0.4,0,0.8,0.4v0.4v28.8c0,4.8,3.6,9.2,8,10c3.6,1.2,6.8,2.4,10.4,3.6c3.6,1.6,7.2,3.2,10.4,5.2c4,2.4,9.2,1.2,12.4-2
			L253.4,46h0.4c0.4,0,0.4,0,0.8,0.4L288.2,80c0,0,0.4,0.4,0.4,0.8s0,0.4-0.4,0.8L267.8,102c-3.6,3.6-4,8.8-1.2,12.8
			c1.6,3.2,3.2,6.4,4.4,9.6c1.6,3.6,2.8,7.2,4,10.8c1.2,4.4,5.2,7.2,10,7.2h28.8c0.4,0,0.4,0,0.8,0.4c0,0,0.4,0.4,0.4,0.8L315,190.8
			L315,190.8z"/>
	</g>
</g>
<g>
	<g>
		<path class="st0" d="M230.6,104.4c-16-16-38.4-26-62.8-26s-46.8,10-62.8,26s-26,38.4-26,62.8S89,214,105,230s38.4,26,62.8,26
			s46.8-10,62.8-26s26-38.4,26-62.8S246.6,120.4,230.6,104.4z M216.2,215.6c-12.4,12.4-29.6,20-48.4,20s-36-7.6-48.4-20
			s-20-29.6-20-48.4s7.6-36,20-48.4s29.6-20,48.4-20s36,7.6,48.4,20s20,29.6,20,48.4S228.6,203.2,216.2,215.6z"/>
	</g>
</g>
</svg>
