<?xml version="1.0" encoding="utf-8">
<svg version="1.1" id="Layer_1" xmlns="http://www.w3.org/2000/svg" xmlns:xlink="http://www.w3.org/1999/xlink" x="0px" y="0px"
	 viewBox="0 0 511 511" style="enable-background:new 0 0 511 511;" xml:space="preserve">
<style type="text/css">
	.st0{fill:#2E325E;}
	.st1{fill:#585EFE;}
</style>
<g>
	<path class="st0" d="M270.2,422.4l-54.1-272c-0.7-3.6-2.7-6.8-5.7-9c-39.6-29.9-78.4-43.7-80-44.2c-7.2-2.5-15.1,0.8-18.5,7.6
		c-0.7,1.6-18.4,38.7-25.3,87.9c-0.5,3.6,0.3,7.3,2.4,10.4l154.1,230.6c2.8,4.3,7.6,6.7,12.5,6.7c1.9,0,3.9-0.4,5.7-1.1
		C267.8,436.5,271.6,429.4,270.2,422.4z"/>
	<path class="st1" d="M424.4,192.7c-6.9-49.1-24.6-86.3-25.3-87.9c-3.3-6.9-11.3-10.2-18.4-7.6c-1.6,0.6-40.4,14.4-80,44.2
		c-2.9,2.2-5,5.4-5.7,9l-54.1,272c-1.4,7,2.4,14,9,16.7c1.9,0.8,3.8,1.1,5.7,1.1c4.9,0,9.6-2.4,12.5-6.7L422,203.1
		C424,200.1,424.9,196.3,424.4,192.7z"/>
	<path class="st1" d="M270.4,424.5c-0.5-8.3-7.5-14.6-15.8-14.1c-0.1,0-2,0.1-5.3,0.1l-70.5-170.2c2.6-1.1,4.9-2.8,6.6-5.3
		c4.7-6.8,3.1-16.1-3.7-20.8C111.5,165.3,18.3,169.8,14.3,170c-7.6,0.4-13.7,6.5-14.1,14.1c-0.3,4.9-5.8,121.4,64.4,191.7
		c59.6,59.6,152.3,64.7,182.2,64.7c5.4,0,8.7-0.2,9.5-0.2C264.6,439.9,270.9,432.8,270.4,424.5z"/>
	<path class="st0" d="M510.8,184.2c-0.4-7.6-6.5-13.7-14.1-14.1c-3.9-0.2-97.2-4.8-167.4,44.2c-6.8,4.7-8.4,14.1-3.7,20.8
		c1.7,2.4,4,4.2,6.6,5.3l-70.5,170.2c-3.3,0-5.2-0.1-5.3-0.1c-8.3-0.4-15.3,5.9-15.8,14.1c-0.5,8.3,5.9,15.3,14.1,15.8
		c0.7,0,4.1,0.2,9.5,0.2c29.9,0,122.6-5.1,182.2-64.7C516.6,305.6,511.1,189.1,510.8,184.2z"/>
	<path class="st0" d="M255.5,70.5c-3.6,0-7.1,1.3-10,3.8c-3.7,3.3-90,81.7-90,181.1s86.3,177.8,90,181.1c2.8,2.5,6.4,3.8,10,3.8"/>
	<path class="st1" d="M265.5,74.3c-2.8-2.5-6.4-3.8-10-3.8v369.8c3.6,0,7.1-1.3,10-3.8c3.7-3.3,90-81.7,90-181.1
		C355.4,156,269.2,77.6,265.5,74.3z"/>
</g>
</svg>
